<?xml version="1.0" standalone="no"?><!DOCTYPE svg PUBLIC "-//W3C//DTD SVG 1.1//EN" "http://www.w3.org/Graphics/SVG/1.1/DTD/svg11.dtd"><svg class="icon" width="16px" height="16.00px" viewBox="0 0 1024 1024" version="1.1" xmlns="http://www.w3.org/2000/svg"><path fill="#ffffff" d="M703.744557 287.088554 703.744557 95.332229c0-17.599843-14.352893-31.957853-31.957853-31.957853L96.545358 63.374376c-17.545608 0-31.957853 14.359033-31.957853 31.957853l0 191.756325c0 17.60496 14.412244 31.958876 31.957853 31.958876l575.240323 0C689.390641 319.04743 703.744557 304.69249 703.744557 287.088554L703.744557 287.088554zM128.499118 287.088554 128.499118 95.332229l255.673054 0 0 191.756325L128.499118 287.088554 128.499118 287.088554zM831.580061 606.682429 831.580061 414.927127c0-17.60496-14.353916-31.957853-31.957853-31.957853L96.545358 382.969275c-17.545608 0-31.957853 14.353916-31.957853 31.957853l0 191.756325c0 17.59882 14.412244 31.957853 31.957853 31.957853l703.075827 0C817.225121 638.641305 831.580061 624.282273 831.580061 606.682429L831.580061 606.682429zM128.499118 606.682429 128.499118 414.927127l319.584666 0 0 191.756325L128.499118 606.683453 128.499118 606.682429zM959.412494 926.281421 959.412494 734.528166c0-17.612123-14.358009-31.969109-31.953759-31.969109l-830.9144 0c-17.545608 0-31.957853 14.356986-31.957853 31.969109l0 191.753255c0 17.599843 14.412244 31.956829 31.957853 31.956829l830.90826 0C945.053462 958.237227 959.412494 943.881265 959.412494 926.281421L959.412494 926.281421zM128.499118 926.281421 128.499118 734.528166l383.499347 0 0 191.753255L128.499118 926.281421 128.499118 926.281421zM128.499118 926.281421"  /></svg>