<?xml version="1.0" standalone="no"?><!DOCTYPE svg PUBLIC "-//W3C//DTD SVG 1.1//EN" "http://www.w3.org/Graphics/SVG/1.1/DTD/svg11.dtd"><svg class="icon" width="16px" height="16.00px" viewBox="0 0 1024 1024" version="1.1" xmlns="http://www.w3.org/2000/svg"><path fill="#ffffff" d="M789.333333 128a170.666667 170.666667 0 0 1 170.666667 170.666667v426.666666a170.666667 170.666667 0 0 1-170.666667 170.666667H234.666667a170.666667 170.666667 0 0 1-170.666667-170.666667V298.666667a170.666667 170.666667 0 0 1 170.666667-170.666667h554.666666z m106.666667 243.797333l-310.613333 147.925334a170.666667 170.666667 0 0 1-146.773334 0L128 371.797333V725.333333a106.666667 106.666667 0 0 0 102.037333 106.56L234.666667 832h554.666666a106.666667 106.666667 0 0 0 106.56-102.037333L896 725.333333V371.797333zM789.333333 192H234.666667a106.666667 106.666667 0 0 0-106.56 102.037333L128 300.928l338.133333 161.024a106.666667 106.666667 0 0 0 86.549334 2.282667l5.184-2.282667L896 300.906667V298.666667a106.666667 106.666667 0 0 0-102.037333-106.56L789.333333 192z"  /></svg>