<?xml version="1.0" standalone="no"?><!DOCTYPE svg PUBLIC "-//W3C//DTD SVG 1.1//EN" "http://www.w3.org/Graphics/SVG/1.1/DTD/svg11.dtd"><svg class="icon" width="16px" height="16.00px" viewBox="0 0 1024 1024" version="1.1" xmlns="http://www.w3.org/2000/svg"><path fill="#ffffff" d="M251.619556 530.944h74.410666v75.889778H251.619556V530.944z m74.410666 227.555556H251.619556V682.666667h74.410666v75.832889zM251.619556 379.278222h74.410666V455.111111H251.619556V379.278222zM326.542222 256a47.388444 47.388444 0 0 1-47.047111-47.957333V47.957333c0-26.567111 21.276444-47.957333 47.047111-47.957333 26.055111 0 47.047111 21.674667 47.047111 47.957333v160.085334a47.388444 47.388444 0 0 1-47.047111 47.957333zM400.384 113.777778h223.232v75.832889H400.384V113.777778z m0 417.166222h74.410667v75.889778H400.384V530.944z m74.410667 227.555556H400.384V682.666667h74.410667v75.832889zM400.384 379.278222h74.410667V455.111111H400.384V379.278222z m148.821333 0h74.410667V455.111111H549.205333V379.278222z m0 151.665778h74.410667v75.889778H549.205333V530.944z m0 151.722667h74.410667v75.832889H549.205333V682.666667z m148.252445-426.666667a47.388444 47.388444 0 0 1-47.047111-47.957333V47.957333A47.388444 47.388444 0 0 1 697.457778 0c26.055111 0 47.047111 21.674667 47.047111 47.957333v160.085334a47.388444 47.388444 0 0 1-47.047111 47.957333z m0.568889 274.944h74.353777v75.889778h-74.410666V530.944z m74.353777 227.555556h-74.410666V682.666667h74.410666v75.832889z m-74.410666-379.221334h74.410666V455.111111h-74.410666V379.278222zM921.144889 1024H102.855111C50.744889 1024 28.444444 1001.244444 28.444444 948.167111V192.113778C28.444444 138.922667 50.744889 113.777778 102.855111 113.777778h148.764445v75.832889H102.855111v758.556444h818.289778V189.610667h-148.764445V113.777778h148.764445C973.255111 113.777778 995.555556 138.979556 995.555556 192.056889v756.053333C995.555556 1001.244444 972.970667 1024 921.144889 1024z"  /></svg>