<?xml version="1.0" standalone="no"?><!DOCTYPE svg PUBLIC "-//W3C//DTD SVG 1.1//EN" "http://www.w3.org/Graphics/SVG/1.1/DTD/svg11.dtd"><svg class="icon" width="16px" height="16.00px" viewBox="0 0 1024 1024" version="1.1" xmlns="http://www.w3.org/2000/svg"><path fill="#ffffff" d="M583.68 409.6c0 11.264-9.216 20.48-20.48 20.48H358.4c-11.264 0-20.48-9.216-20.48-20.48s9.216-20.48 20.48-20.48h204.8c11.264 0 20.48 9.216 20.48 20.48z m256-51.2c0 86.016-8.192 173.056-24.576 259.072-1.024 6.144-3.072 12.288-6.144 17.408-1.024 2.048-2.048 4.096-4.096 6.144l-2.048 2.048-3.072 3.072-284.672 289.792c-1.024 2.048-3.072 3.072-5.12 5.12-1.024 1.024-2.048 2.048-4.096 3.072-4.096 3.072-8.192 5.12-13.312 7.168-39.936 14.336-79.872 21.504-118.784 21.504-25.6 0-50.176-3.072-71.68-8.192-51.2-11.264-89.088-53.248-95.232-104.448-16.384-112.64-23.552-226.304-23.552-348.16 0-110.592 7.168-221.184 20.48-337.92 7.168-55.296 48.128-97.28 102.4-105.472C373.76 56.32 441.344 51.2 512 51.2c68.608 0 137.216 6.144 210.944 17.408 51.2 8.192 92.16 49.152 101.376 99.328 10.24 59.392 15.36 121.856 15.36 190.464zM733.184 654.336c-27.648-5.12-55.296-8.192-82.944-8.192-33.792 0-68.608 4.096-103.424 12.288-11.264 2.048-19.456 11.264-22.528 22.528-8.192 33.792-12.288 68.608-12.288 103.424 0 30.72 3.072 59.392 8.192 88.064l212.992-218.112zM798.72 358.4c0-66.56-5.12-125.952-15.36-182.272-6.144-33.792-32.768-60.416-67.584-66.56C645.12 97.28 578.56 92.16 512 92.16c-68.608 0-133.12 5.12-198.656 16.384-35.84 6.144-62.464 33.792-67.584 70.656-13.312 115.712-20.48 224.256-20.48 332.8 0 119.808 7.168 232.448 23.552 343.04 4.096 34.816 29.696 62.464 63.488 69.632 18.432 4.096 39.936 7.168 62.464 7.168 33.792 0 69.632-6.144 104.448-19.456 1.024 0 2.048-1.024 3.072-2.048l2.048-2.048c2.048-2.048 2.048-5.12 2.048-7.168-9.216-38.912-14.336-76.8-14.336-117.76 0-36.864 4.096-74.752 12.288-111.616 6.144-26.624 26.624-48.128 53.248-53.248 72.704-16.384 148.48-17.408 222.208 0h2.048c3.072 0 6.144 0 8.192-2.048l2.048-2.048c1.024-1.024 1.024-2.048 2.048-4.096C790.528 526.336 798.72 441.344 798.72 358.4z m-133.12-92.16H358.4c-11.264 0-20.48 9.216-20.48 20.48s9.216 20.48 20.48 20.48h307.2c11.264 0 20.48-9.216 20.48-20.48s-9.216-20.48-20.48-20.48z" /></svg>