<?xml version="1.0" standalone="no"?><!DOCTYPE svg PUBLIC "-//W3C//DTD SVG 1.1//EN" "http://www.w3.org/Graphics/SVG/1.1/DTD/svg11.dtd"><svg class="icon" width="16px" height="16.00px" viewBox="0 0 1024 1024" version="1.1" xmlns="http://www.w3.org/2000/svg"><path fill="#ffffff" d="M192 192l384 0 0 64-384 0 0-64Z"  /><path fill="#ffffff" d="M192 384l384 0 0 64-384 0 0-64Z"  /><path fill="#ffffff" d="M192 576l384 0 0 64-384 0 0-64Z"  /><path fill="#ffffff" d="M192 768l384 0 0 64-384 0 0-64Z"  /><path fill="#ffffff" d="M832 256l-128 0L704 192c0 0 0-64 64-64s64 64 64 64L832 256z"  /><path fill="#ffffff" d="M704 320l128 0 0 320-128 0 0-320Z"  /><path fill="#ffffff" d="M832 832 768 896 704 832 704 704 832 704Z"  /><path fill="#ffffff" d="M64 0l0 1024 896 0L960 0 64 0zM930.688 989.312 96 989.312l0-960 834.688 0L930.688 989.312z"  /></svg>