<?xml version="1.0" standalone="no"?><!DOCTYPE svg PUBLIC "-//W3C//DTD SVG 1.1//EN" "http://www.w3.org/Graphics/SVG/1.1/DTD/svg11.dtd"><svg class="icon" width="16px" height="16.00px" viewBox="0 0 1024 1024" version="1.1" xmlns="http://www.w3.org/2000/svg"><path fill="#ffffff" d="M896.35 821.7c41.229 0 74.65 33.421 74.65 74.65 0 41.229-33.421 74.65-74.65 74.65-41.229 0-74.65-33.421-74.65-74.65 0-41.229 33.421-74.65 74.65-74.65zM683.1 96.65c17.673 0 32 14.327 32 32 0 17.496-14.042 31.713-31.47 31.996l-0.53 0.004-223.901-0.001-0.001 319.851H683.1c17.673 0 32 14.327 32 32 0 17.496-14.042 31.713-31.47 31.996l-0.53 0.004H459.198l0.001 319.849 223.901 0.001c17.496 0 31.713 14.042 31.996 31.47l0.004 0.53c0 17.496-14.042 31.713-31.47 32H427.2c-17.496 0-31.713-14.042-31.996-31.47l-0.004-0.53-0.001-351.85-111.018 0.001c-13.76 48.635-58.105 84.427-110.941 85.283l-1.94 0.016C106.517 629.8 54 577.282 54 512.5s52.517-117.3 117.3-117.3c53.688 0 98.953 36.07 112.882 85.3h111.017l0.001-351.85c0-17.496 14.042-31.713 31.47-32H683.1zM896.35 885.7c-5.882 0-10.65 4.768-10.65 10.65 0 5.882 4.768 10.65 10.65 10.65 5.882 0 10.65-4.768 10.65-10.65 0-5.882-4.768-10.65-10.65-10.65z m0-447.85c41.229 0 74.65 33.421 74.65 74.65 0 41.229-33.421 74.65-74.65 74.65-41.229 0-74.65-33.421-74.65-74.65 0-41.229 33.421-74.65 74.65-74.65zM171.3 459.2c-29.436 0-53.3 23.864-53.3 53.3 0 29.436 23.864 53.3 53.3 53.3 29.436 0 53.3-23.864 53.3-53.3 0-29.436-23.864-53.3-53.3-53.3z m725.05 42.65c-5.882 0-10.65 4.768-10.65 10.65 0 5.882 4.768 10.65 10.65 10.65 5.882 0 10.65-4.768 10.65-10.65 0-5.882-4.768-10.65-10.65-10.65z m0-447.85C937.579 54 971 87.422 971 128.65c0 41.228-33.421 74.65-74.65 74.65-41.229 0-74.65-33.422-74.65-74.65 0-41.228 33.421-74.65 74.65-74.65z m0 64c-5.882 0-10.65 4.768-10.65 10.65 0 5.882 4.768 10.65 10.65 10.65 5.882 0 10.65-4.768 10.65-10.65 0-5.882-4.768-10.65-10.65-10.65z" /></svg>