<?xml version="1.0" standalone="no"?><!DOCTYPE svg PUBLIC "-//W3C//DTD SVG 1.1//EN" "http://www.w3.org/Graphics/SVG/1.1/DTD/svg11.dtd"><svg class="icon" width="16px" height="15.06px" viewBox="0 0 1088 1024" version="1.1" xmlns="http://www.w3.org/2000/svg"><path d="M966.72 96V512h-64V403.136h-200.192V652.8h-0.896v6.4l-259.712-0.064V864h108.8v64h-416v-832h832z m-563.2 563.136h-204.8V864h204.8v-204.864z m38.4-256v217.6l222.208 0.064V403.136H441.92z m-38.4 0h-204.8v217.6h204.8v-217.6zM198.72 160v204.736h204.8V160h-204.8z m465.408 0H441.92v204.736h222.208V160z m38.4 0v204.736h200.192V160h-200.192z" fill="#324558" /><path d="M666.24 620.992V403.008H435.2v217.984h231.168z m192.768-5.632l120 120-85.76 85.76-97.152 98.304-9.088 3.776h-85.312l-8.96-3.712-68.928-68.416 123.456-123.52-0.192-0.192 112-112z m-93.696 130.24l-105.28 105.408 46.976 46.592h74.56l67.392-68.288-83.648-83.712z" fill="#EE5144" /></svg>